<?xml version="1.0" standalone="no"?>
<!DOCTYPE svg PUBLIC "-//W3C//DTD SVG 1.1//EN" "http://www.w3.org/Graphics/SVG/1.1/DTD/svg11.dtd">
<svg width="100%" height="100%" viewBox="0 0 70 70" version="1.1" xmlns="http://www.w3.org/2000/svg" xmlns:xlink="http://www.w3.org/1999/xlink" xml:space="preserve" style="fill-rule:evenodd;clip-rule:evenodd;stroke-linejoin:round;stroke-miterlimit:1.41421;">
    <g transform="matrix(1,0,0,1,-800,-79)">
        <g id="snowball-large">
            <path d="M800,114.95L800,114.55L800,113.8L800,113.55L800,113.5L800,112.95L800.05,112.95C800.15,110.35 800.5,107.867 801.1,105.5L810.45,95.5L817.3,84.1C822.267,81.1 827.817,79.5 833.95,79.3L835.3,79.25L837.15,79.3L859.65,89.05L860.25,89.6C862.483,91.867 864.367,94.267 865.9,96.8L869,114.95L868.65,114.95L865.9,98.8C864.367,96.267 862.483,93.867 860.25,91.6L859.65,91.05L837.15,81.3L835.3,81.25L833.95,81.3C827.817,81.5 822.267,83.1 817.3,86.1L810.45,97.5L801.1,107.5C800.633,109.267 800.317,111.083 800.15,112.95L800.05,114.95L800,114.95" style="fill:white;fill-rule:nonzero;"/>
            <path d="M800,114.95L800.05,114.95L800.15,112.95C800.317,111.083 800.633,109.267 801.1,107.5L810.45,97.5L817.3,86.1C822.267,83.1 827.817,81.5 833.95,81.3L835.3,81.25L837.15,81.3L859.65,91.05L860.25,91.6C862.483,93.867 864.367,96.267 865.9,98.8L868.65,114.95L869,114.95L870,121C868.867,127.667 865.867,133.567 861,138.7L845.25,146.5L827.45,149C822.717,147.967 818.367,145.967 814.4,143L802.3,127.3C800.8,123.467 800.033,119.35 800,114.95M834.9,115.95L836.95,110.7L833.35,106.15L827.7,107.05L825.55,112.4L829.25,116.95L834.9,115.95M852.25,117.9L857.45,112.85L855.7,105.6L848.6,103.65L843.25,108.75L845.1,116L852.25,117.9M844.75,89.8L835.3,88L829,95.25L832.15,104.4L841.65,106.15L847.9,98.95L844.75,89.8" style="fill:rgb(233,252,255);fill-rule:nonzero;"/>
            <path d="M844.75,89.8L847.9,98.95L841.65,106.15L832.15,104.4L829,95.25L835.3,88L844.75,89.8M852.25,117.9L845.1,116L843.25,108.75L848.6,103.65L855.7,105.6L857.45,112.85L852.25,117.9M834.9,115.95L829.25,116.95L825.55,112.4L827.7,107.05L833.35,106.15L836.95,110.7L834.9,115.95" style="fill:rgb(220,248,252);fill-rule:nonzero;"/>
        </g>
    </g>
</svg>
