<?xml version="1.0" standalone="no"?>
<!DOCTYPE svg PUBLIC "-//W3C//DTD SVG 1.1//EN" "http://www.w3.org/Graphics/SVG/1.1/DTD/svg11.dtd">
<svg width="100%" height="100%" viewBox="0 0 29 31" version="1.1" xmlns="http://www.w3.org/2000/svg" xmlns:xlink="http://www.w3.org/1999/xlink" xml:space="preserve" style="fill-rule:evenodd;clip-rule:evenodd;stroke-linejoin:round;stroke-miterlimit:1.41421;">
    <g transform="matrix(1,0,0,1,-981,-100)">
        <g id="snowball-small">
            <path d="M1009.5,116.35C1009.43,114.65 1009.12,113.067 1008.55,111.6L1000.5,103.65C998.9,103.017 997.183,102.7 995.35,102.7C993.55,102.7 991.883,103 990.35,103.6L988.2,107L982.35,111.2C981.65,112.767 981.267,114.483 981.2,116.35L981.2,115.85L981.2,115.35L981.2,114.85C981.2,112.783 981.583,110.9 982.35,109.2L988.2,105L990.35,101.6C991.883,101 993.55,100.7 995.35,100.7C997.183,100.7 998.9,101.017 1000.5,101.65L1008.55,109.6C1009.18,111.2 1009.5,112.95 1009.5,114.85L1009.5,116.35" style="fill:white;fill-rule:nonzero;"/>
            <path d="M1009.5,116.35L1009.5,116.85C1009.5,118.417 1009.28,119.9 1008.85,121.3L1001.95,129.45C999.95,130.483 997.75,131 995.35,131L994.85,131L988.45,126.5L983.7,124.85C982.033,122.517 981.2,119.85 981.2,116.85L981.2,116.35C981.267,114.483 981.65,112.767 982.35,111.2L988.2,107L990.35,103.6C991.883,103 993.55,102.7 995.35,102.7C997.183,102.7 998.9,103.017 1000.5,103.65L1008.55,111.6C1009.12,113.067 1009.43,114.65 1009.5,116.35" style="fill:rgb(233,252,255);fill-rule:nonzero;"/>
        </g>
    </g>
</svg>
