<?xml version="1.0" standalone="no"?>
<!DOCTYPE svg PUBLIC "-//W3C//DTD SVG 1.1//EN" "http://www.w3.org/Graphics/SVG/1.1/DTD/svg11.dtd">
<svg width="100%" height="100%" viewBox="0 0 129 122" version="1.1" xmlns="http://www.w3.org/2000/svg" xmlns:xlink="http://www.w3.org/1999/xlink" xml:space="preserve" style="fill-rule:evenodd;clip-rule:evenodd;stroke-linejoin:round;stroke-miterlimit:1.41421;">
    <g transform="matrix(1,0,0,1,-224,-646)">
        <g id="star-gold" transform="matrix(3.36842,0,0,3.36842,-1277.81,-328.407)">
            <path d="M466.6,290.05C466.333,289.75 466,289.533 465.6,289.4C465.2,289.267 464.817,289.267 464.45,289.4C464.05,289.5 463.717,289.717 463.45,290.05L456.95,298.05L447.25,301.65C446.883,301.783 446.583,302.017 446.35,302.35C446.083,302.683 445.95,303.067 445.95,303.5C445.95,303.9 446.067,304.267 446.3,304.6L452,313.2L452.45,323.4C452.483,323.8 452.617,324.167 452.85,324.5C453.083,324.833 453.4,325.067 453.8,325.2C454.2,325.333 454.6,325.35 455,325.25L465,322.55L474.9,325.25C475.267,325.35 475.65,325.333 476.05,325.2C476.45,325.067 476.767,324.833 477,324.5C477.233,324.167 477.367,323.8 477.4,323.4L477.95,313.2L483.65,304.6C483.85,304.267 483.95,303.9 483.95,303.5C483.95,303.067 483.833,302.683 483.6,302.35C483.333,302.017 483.017,301.783 482.65,301.65L473,298.1L466.6,290.05M481.95,303.5L475.95,312.55L475.4,323.3L465,320.45L454.45,323.3L453.95,312.55L447.95,303.5L458.15,299.75L465,291.3L471.75,299.75L481.95,303.5Z" style="fill:rgb(175,140,0);fill-rule:nonzero;"/>
            <path d="M458.15,301.75L451.15,304.35L465,308L465,293.3L458.15,301.75M481.95,303.5L478.8,304.35L465,308L465,320.45L475.4,323.3L475.95,312.55L481.95,303.5Z" style="fill:rgb(255,204,0);fill-rule:nonzero;"/>
            <path d="M451.15,304.35L447.95,303.5L453.95,312.55L454.45,323.3L465,320.45L465,308L451.15,304.35Z" style="fill:rgb(236,189,0);fill-rule:nonzero;"/>
            <path d="M478.8,304.35L471.75,301.75L465,293.3L465,308L478.8,304.35M465,293.3L465,291.3L458.15,299.75L447.95,303.5L451.15,304.35L458.15,301.75L465,293.3Z" style="fill:rgb(255,218,72);fill-rule:nonzero;"/>
            <path d="M465,291.3L465,293.3L471.75,301.75L478.8,304.35L481.95,303.5L471.75,299.75L465,291.3Z" style="fill:rgb(255,233,152);fill-rule:nonzero;"/>
        </g>
    </g>
</svg>
