<?xml version="1.0" standalone="no"?>
<!DOCTYPE svg PUBLIC "-//W3C//DTD SVG 1.1//EN" "http://www.w3.org/Graphics/SVG/1.1/DTD/svg11.dtd">
<svg width="100%" height="100%" viewBox="0 0 129 122" version="1.1" xmlns="http://www.w3.org/2000/svg" xmlns:xlink="http://www.w3.org/1999/xlink" xml:space="preserve" style="fill-rule:evenodd;clip-rule:evenodd;stroke-linejoin:round;stroke-miterlimit:1.41421;">
    <g transform="matrix(1,0,0,1,-506,-641)">
        <g id="star-platinum" transform="matrix(3.36842,0,0,3.36842,-1264.96,-333.288)">
            <path d="M544.45,289.4C544.05,289.5 543.717,289.717 543.45,290.05L536.95,298.05L527.25,301.65C526.883,301.783 526.583,302.017 526.35,302.35C526.083,302.683 525.95,303.067 525.95,303.5C525.95,303.9 526.067,304.267 526.3,304.6L532,313.2L532.45,323.4C532.483,323.8 532.617,324.167 532.85,324.5C533.083,324.833 533.4,325.067 533.8,325.2C534.2,325.333 534.6,325.35 535,325.25L545,322.55L554.9,325.25C555.267,325.35 555.65,325.333 556.05,325.2C556.45,325.067 556.767,324.833 557,324.5C557.233,324.167 557.367,323.8 557.4,323.4L557.95,313.2L563.65,304.6C563.85,304.267 563.95,303.9 563.95,303.5C563.95,303.067 563.833,302.683 563.6,302.35C563.333,302.017 563.017,301.783 562.65,301.65L553,298.1L546.6,290.05C546.333,289.75 546,289.533 545.6,289.4C545.2,289.267 544.817,289.267 544.45,289.4M551.75,299.75L561.95,303.5L555.95,312.55L555.4,323.3L545,320.45L534.45,323.3L533.95,312.55L527.95,303.5L538.15,299.75L545,291.3L551.75,299.75Z" style="fill:rgb(87,150,161);fill-rule:nonzero;"/>
            <path d="M538.15,301.75L531.15,304.35L545,308L545,293.3L538.15,301.75M555.95,312.55L561.95,303.5L545,308L545,320.45L555.4,323.3L555.95,312.55Z" style="fill:rgb(182,236,245);fill-rule:nonzero;"/>
            <path d="M527.95,303.5L533.95,312.55L534.45,323.3L545,320.45L545,308L531.15,304.35L527.95,303.5Z" style="fill:rgb(156,214,224);fill-rule:nonzero;"/>
            <path d="M561.95,303.5L551.75,299.75L545,291.3L538.15,299.75L527.95,303.5L531.15,304.35L538.15,301.75L545,293.3L545,308L561.95,303.5Z" style="fill:rgb(208,248,255);fill-rule:nonzero;"/>
        </g>
    </g>
</svg>
